<?xml version="1.0" standalone="no"?>
<!DOCTYPE svg PUBLIC "-//W3C//DTD SVG 20010904//EN"
 "http://www.w3.org/TR/2001/REC-SVG-20010904/DTD/svg10.dtd">
<svg version="1.0" xmlns="http://www.w3.org/2000/svg"
 width="100.000000pt" height="100.000000pt" viewBox="0 0 100.000000 100.000000"
 preserveAspectRatio="xMidYMid meet">

<g transform="translate(0.000000,100.000000) scale(0.100000,-0.100000)"
fill="#000000" stroke="none">
<path d="M386 944 c-171 -41 -308 -192 -338 -371 -51 -303 217 -573 521 -526
98 15 171 52 245 123 340 326 31 885 -428 774z m264 -53 c140 -54 240 -177
265 -328 l7 -43 -111 0 -110 0 -11 41 c-20 75 -108 139 -190 139 -82 0 -170
-64 -190 -139 l-11 -41 -110 0 -111 0 7 42 c29 169 143 297 305 343 72 20 188
14 260 -14z m-87 -245 c43 -17 85 -68 93 -111 10 -56 -4 -102 -44 -144 -64
-67 -157 -68 -223 -2 -124 123 13 325 174 257z m-253 -207 c20 -75 108 -139
190 -139 82 0 170 64 190 139 l11 41 110 0 111 0 -7 -42 c-25 -151 -123 -273
-265 -330 -43 -17 -75 -22 -150 -22 -75 0 -107 5 -150 22 -142 57 -240 179
-265 330 l-7 42 111 0 110 0 11 -41z"/>
<path d="M451 586 c-87 -48 -50 -186 49 -186 51 0 100 49 100 99 0 75 -83 124
-149 87z m99 -58 c13 -25 13 -31 0 -55 -21 -38 -71 -44 -94 -11 -21 29 -20 57
1 80 25 28 73 20 93 -14z"/>
</g>
</svg>
