<?xml version="1.0" ?><svg enable-background="new 0 0 24 24" id="Layer_1" version="1.1" viewBox="0 0 24 24" xml:space="preserve" xmlns="http://www.w3.org/2000/svg" xmlns:xlink="http://www.w3.org/1999/xlink"><g><circle cx="7.9998465" cy="8.0000877" fill="#303C42" r="3"/><path d="M23.8660564,0.159756c-0.1474609-0.1606445-0.3828125-0.2045898-0.5800781-0.1118164L11.844573,5.6807523   c-0.2285156,0.1269531-0.3203125,0.4082031-0.2109375,0.6455078c0.2392578,0.5224609,0.3662109,1.1015625,0.3662109,1.6738276   c0,2.2055664-1.7939453,4-4,4c-1.34375,0-2.5927734-0.6728516-3.3398438-1.800293   C4.5154715,9.9805565,4.226409,9.9131737,3.9998465,10.0391502l-2.6210938,1.4560547   c-0.1191406,0.0664063-0.2060547,0.1787109-0.2402344,0.3110352C1.1033621,11.938076,1.1248465,12.078701,1.1961355,12.194912   c1.4726563,2.3828125,4.015625,3.8051758,6.8037109,3.8051758c0.036499,0,0.0722046-0.0029907,0.1085205-0.003479   l1.9061279,7.6245728c0.0498047,0.1987305,0.2158203,0.3466797,0.4179688,0.3745117   c0.0224609,0.0029297,0.0449219,0.0043945,0.0673828,0.0043945c0.1787109,0,0.3457031-0.0957031,0.4355469-0.2539063l12.999999-23   C24.0428143,0.5562404,24.0144939,0.3189357,23.8660564,0.159756z" fill="#303C42"/><path d="M4.0301199,8.4898338C4.0115652,8.3326073,3.9998465,8.1626854,3.9998465,8.0000877   c0-2.2055659,1.7939453-3.9999995,4-3.9999995c0.9189453,0,1.8183594,0.3203125,2.53125,0.9023438   c0.1591797,0.1298828,0.3798828,0.1484375,0.5576172,0.0507813l2.7363281-1.5097659   c0.1337891-0.0737305,0.2265625-0.2041016,0.2519531-0.3540039c0.0253906-0.1503906-0.0185547-0.3041992-0.1201172-0.4174805   c-1.5205078-1.6977539-3.6914063-2.671875-5.9570313-2.671875c-4.4111328,0-8,3.5888672-8,7.9999995   c0,0.7324219,0.1054688,1.4726563,0.3134766,2.199707c0.0419922,0.1459961,0.1474609,0.265625,0.2880859,0.3242188   c0.0625,0.0253906,0.1269531,0.0380859,0.1923828,0.0380859c0.0830078,0,0.1669922-0.0209961,0.2412109-0.0620117   L3.7752371,8.988369C3.953948,8.8897362,4.054534,8.6924706,4.0301199,8.4898338z" fill="#303C42"/></g><g/><g/><g/><g/><g/><g/><g/><g/><g/><g/><g/><g/><g/><g/><g/></svg>